<svg width="100" height="100" viewBox="0 0 24 24" fill="none" xmlns="http://www.w3.org/2000/svg"><g fill="#0F0F0F"><path d="M4.4955 7.4409c-.9483.677-1.717 1.4009-2.3062 2.0389-1.332 1.4424-1.332 3.598 0 5.0404C3.9167 16.391 7.1888 19 12 19c1.2958 0 2.4799-.1892 3.5523-.5023l-1.6628-1.6628A10.7692 10.7692 0 0 1 12 17c-4.0331 0-6.8117-2.18-8.3413-3.8366-.6244-.6762-.6244-1.6506 0-2.3268.5788-.6269 1.3366-1.3288 2.2734-1.959L4.4955 7.4408Z"/><path d="M8.533 11.4784A3.5274 3.5274 0 0 0 8.4944 12c0 1.933 1.567 3.5 3.5 3.5.1772 0 .3514-.0132.5216-.0386l-3.983-3.983ZM15.4661 12.4471l-3.9188-3.9188a3.5328 3.5328 0 0 1 .4471-.0283c1.933 0 3.5 1.567 3.5 3.5 0 .1515-.0096.3007-.0283.4471Z"/><path d="M18.1118 15.0928c.9166-.6226 1.6597-1.3123 2.2295-1.9294.6244-.6762.6244-1.6506 0-2.3268C18.8117 9.18 16.0331 7 12 7c-.6406 0-1.2495.055-1.8268.1541L8.5048 5.4858C9.5621 5.1826 10.7272 5 12 5c4.8112 0 8.0833 2.609 9.8107 4.4798 1.3319 1.4424 1.3319 3.598 0 5.0404-.5802.6284-1.3347 1.3401-2.2633 2.0082l-1.4356-1.4356ZM2.0079 3.422c-.3905-.3904-.3905-1.0236 0-1.4141.3905-.3906 1.0237-.3906 1.4142 0l18.5783 18.5783c.3906.3905.3906 1.0237 0 1.4142-.3905.3905-1.0237.3905-1.4142 0L2.0079 3.4221Z"/></g></svg>